<svg version="1.2" xmlns="http://www.w3.org/2000/svg" viewBox="0 0 126 150" width="126" height="150">
	<title>switch-casque-gmusic-svg</title>
	<style>
		.s0 { fill: #000000 } 
		.s1 { fill: #d2d2d2 } 
		.s2 { fill: #ffc61a } 
		.s3 { fill: #895e08 } 
		.s4 { opacity: .6;fill: none } 
		.s5 { fill: #167085 } 
	</style>
	<g id="Layer_2">
		<path class="s0" d="m19.2 30.3l-1.7 1.8"/>
		<path class="s0" d="m4.6 45.6l10.1 0.7-8.3 12.2h6.6l-2.7 11.1 8.9-3.3-2.7 11.7 13.9-4.2 64.4 1.8 12 6.9-1.5-7.1 4.1 1.2v-14.1q1.8 1.9 3.5 3.8c0.6-2.2 1.1-5.4 0.8-9.3-0.5-4.9-2.3-8.6-1.3-9.1 0.9-0.5 4.4 1.4 5.8 2.8 0.2 0.1 0.4 0.3 0.6 0.2 0.8-0.3-0.2-5.4-1.2-8.3-0.9-2.5-3-7.1-9.2-11.4q4-1.5 8-3l-20.4-2.9 6.9-8.1-24.5 2.9 6.9-7.4-24 6.2 2.3-7.1-17.6 5.1 0.3-5.1-15.6 8.7-1.5-8.7c-7.5 5.2-17.9 14.3-23 28.5q-1 2.7-1.6 5.3z"/>
	</g>
	<g id="Layer_3">
		<path class="s1" d="m23.6 42.9c1.2 1 2.8 2.6 4.1 4.9 2.7 4.9 2.3 9.7 2.2 11.4-0.8 11-0.7 31-0.5 35.7 0.8 18.8 11.7 40.6 26.8 44.3 6.7 1.7 13-0.6 14.1-1 7.6-2.8 11.6-8.8 15.7-15.2 3.5-5.3 7.3-12.9 9.5-22.9 2.1-9.5 1.2-14.2 1.3-32.2 0-9.7 0.4-18.2 0.7-25.3q-3.3 0.6-6.5 1.2-0.8-5.1-1.5-10.2l-12.4 5.6-9.3-6.4-6.6 5.9-6.9-6.6q-3.6 3.4-7.3 6.8-4.1-2.6-8.2-5.2l-2.8 8.3z"/>
		<path class="s1" d="m18 49.9c1.2 2.9 2.5 6.8 3.1 11.6 0.6 4.1 0.5 7.6 0.2 10.4 1.2-0.3 2.8-0.9 4.2-2.3 5.4-5.2 3.9-17.8-1.6-20.1-1-0.4-2.8-0.9-5.9 0.4z"/>
		<path class="s1" d="m106.5 68.1c-0.8-2.7-1.5-6.5-1.5-10.9 0.1-3.8 0.6-6.9 1.3-9.4-1.2 0.1-2.9 0.4-4.5 1.3-6 3.7-6.3 15.2-1.1 18.4 0.8 0.5 2.5 1.2 5.8 0.6z"/>
	</g>
	<g id="Folder 1">
		<path class="s1" d="m7.9 5.3q-0.4 0-0.7 0.1-0.3 0.1-0.5 0.4-0.2 0.2-0.4 0.5-0.1 0.3-0.1 0.6v32.2l3.3-2.2v-30q0-0.3-0.1-0.6-0.2-0.3-0.4-0.5-0.2-0.3-0.5-0.4-0.3-0.1-0.6-0.1z"/>
		<path class="s2" d="m109.3 46.5l7.8 5.4c-2.5-25.2-10.8-33.3-20.3-40.4-9.3-6.9-20.8-10.2-32.6-10.5h-0.9-1c-11.8 0.3-23.2 3.5-32.5 10.5-9.6 7.1-17.8 15.2-20.3 40.4l7.8-5.4q0.1-0.9 0.3-1.7 0.1-0.9 0.3-1.8 0.1-0.9 0.3-1.7 0.2-0.9 0.4-1.7c3.6-10.8 9.5-17.9 16-22.7 10.4-7.5 22.2-8.9 28.7-9 6.5 0.1 18.3 1.5 28.7 9.1 6.5 4.7 12.4 11.9 16 22.6q0.2 0.9 0.4 1.8 0.2 0.8 0.4 1.7 0.1 0.9 0.3 1.7 0.1 0.9 0.2 1.8z"/>
		<path class="s3" d="m17.3 31.5l-11.1 7.6v27.3h6.7v-9.8c0-2.1-0.7-6.6 3.2-6.6z"/>
		<path class="s1" d="m118.7 5.3q-0.3 0-0.6 0.1-0.3 0.1-0.5 0.4-0.3 0.2-0.4 0.5-0.1 0.3-0.1 0.6v30l3.2 2.2v-32.2q0-0.3-0.1-0.6-0.1-0.3-0.3-0.5-0.3-0.3-0.6-0.4-0.3-0.1-0.6-0.1z"/>
		<path class="s3" d="m109.3 31.5l11 7.6v27.3h-6.6v-9.8c0-2.1 0.7-6.6-3.3-6.6z"/>
		<path class="s2" d="m16.1 50c-4 0-3.2 4.5-3.2 6.7v16.8q0.1 0.7 0.4 1.3 0.3 0.7 0.9 1.2 0.5 0.4 1.2 0.7 0.6 0.3 1.4 0.3h1.5v-27z"/>
		<path fill-rule="evenodd" class="s4" d="m0-15h126v150h-126z"/>
		<path class="s5" d="m102.6 44.2q-0.7 0-1.3 0.2-0.7 0.2-1.3 0.5-0.6 0.3-1.1 0.8-0.5 0.5-0.9 1c-0.1 6.7-0.4 15-0.9 19.6q0 0.4 0 0.8 0 0.4-0.1 0.7 0 0.4-0.1 0.8 0 0.4-0.1 0.7v8c0 2.3 2.4 5.8 5.4 5.8q1.2 0 2.3-0.4 1.1-0.4 2-1.3 0.8-0.8 1.3-1.8 0.5-1.1 0.6-2.3v-27.6c0-3.1-1.9-5.5-5.8-5.5z"/>
		<path class="s5" d="m28.2 66.4c-0.6-6.6-0.7-8.1 0.3-19.9q-0.4-0.6-1-1-0.5-0.4-1.1-0.7-0.6-0.3-1.3-0.5-0.6-0.1-1.3-0.1-1.1-0.1-2.2 0.3-1 0.4-1.8 1.2-0.8 0.8-1.2 1.8-0.4 1-0.3 2.1v27.7q0.1 1.2 0.6 2.2 0.6 1.1 1.4 1.9 0.9 0.8 2 1.2 1 0.5 2.2 0.5c3 0 5.4-3.5 5.4-5.8v-3.6q-0.3-0.9-0.6-1.8-0.3-0.9-0.5-1.8-0.3-0.9-0.4-1.9-0.1-0.9-0.2-1.8z"/>
		<path class="s2" d="m110.4 50h-2v27h1.4q0.7 0 1.4-0.3 0.6-0.3 1.2-0.8 0.5-0.5 0.8-1.1 0.4-0.7 0.4-1.4v-16.8c0.1-2.1 0.8-6.6-3.2-6.6z"/>
	</g>
</svg>